<!-- Generated by IcoMoon.io -->
<svg version="1.1" xmlns="http://www.w3.org/2000/svg" width="32" height="32" viewBox="0 0 32 32">
<path d="M16 1.92c-7.769 0-14.080 6.311-14.080 14.080 0 7.052 5.202 12.889 11.976 13.906l0.735 0.111v-11.095h-3.326v-2.253h3.326v-2.991c0-1.842 0.442-3.055 1.174-3.816s1.813-1.145 3.317-1.145c1.203 0 1.671 0.073 2.116 0.127v1.844h-1.566c-0.889 0-1.618 0.496-1.996 1.156s-0.496 1.449-0.496 2.252v2.571h3.919l-0.349 2.253h-3.57v11.114l0.726-0.099c6.871-0.932 12.174-6.815 12.174-13.936 0-7.769-6.311-14.080-14.080-14.080zM16 3.2c7.077 0 12.8 5.723 12.8 12.8 0 6.227-4.457 11.348-10.34 12.501v-8.3h3.387l0.744-4.813h-4.131v-1.291c0-0.664 0.122-1.259 0.326-1.616s0.402-0.512 0.886-0.512h2.846v-4.282l-0.555-0.075c-0.384-0.052-1.26-0.174-2.841-0.174-1.73 0-3.215 0.471-4.24 1.537s-1.531 2.654-1.531 4.704v1.711h-3.326v4.813h3.326v8.259c-5.788-1.226-10.151-6.302-10.151-12.461 0-7.077 5.723-12.8 12.8-12.8z"></path>
</svg>
